<svg width="522" height="480" viewBox="0 0 522 480" fill="none" xmlns="http://www.w3.org/2000/svg">
<g clip-path="url(#clip0_545_2905)">
<path d="M451.818 406.713H68.9004V341.012H74.8075V292.11C74.8203 280.588 79.3547 269.542 87.4159 261.395C95.4771 253.248 106.407 248.665 117.807 248.652H403.607C415.007 248.665 425.937 253.248 433.998 261.395C442.059 269.542 446.593 280.588 446.606 292.11V341.012H451.818V406.713Z" fill="#595569"/>
<path d="M462.194 479.025H443.132V478.674C443.113 461.636 436.407 445.301 424.486 433.253C412.565 421.205 396.403 414.428 379.544 414.408H141.175C124.317 414.428 108.154 421.205 96.2329 433.253C84.312 445.301 77.6064 461.636 77.5873 478.674V479.025H58.5254C54.1825 479.02 50.0189 477.274 46.948 474.171C43.8771 471.067 42.1497 466.859 42.1448 462.47V355.072C36.6095 351.911 32.1075 334.745 35.0318 321.036C36.8669 312.433 42.1649 302.043 56.9823 301.4C71.4064 300.773 82.1128 314.459 83.0691 327.633C83.5874 334.566 81.5728 341.45 77.4066 346.982H77.5873V362.303C108.866 352.173 140.189 347.018 170.693 346.982C201.908 347.013 232.905 352.226 262.447 362.415C323.87 342.337 384.656 341.946 443.132 361.258V346.982H443.313C439.146 341.45 437.132 334.566 437.65 327.633C438.699 313.183 450.395 301.415 463.722 301.399H463.766C479.481 301.399 485.04 310.961 486.936 318.987C490.291 333.19 484.131 351.885 478.574 355.071V462.47C478.57 466.859 476.842 471.067 473.771 474.171C470.7 477.274 466.537 479.02 462.194 479.025Z" fill="#595569"/>
<path d="M355.696 450.285L364.897 456.928L394.628 424.221L381.048 414.418L355.696 450.285Z" fill="#FFB6B6"/>
<path d="M355.496 445.555L358.085 447.424L371.134 450.569L373.616 458.637L373.616 458.637C376.679 460.849 378.747 464.199 379.365 467.951C379.984 471.703 379.102 475.549 376.914 478.645L376.646 479.024L346.979 457.605L355.496 445.555Z" fill="#2F2E41"/>
<path d="M418.047 362.721H350.486C344.186 362.718 338.145 360.186 333.692 355.683C329.238 351.179 326.736 345.073 326.736 338.705C326.736 332.338 329.238 326.232 333.692 321.728C338.145 317.225 344.186 314.693 350.486 314.689H418.047C424.349 314.689 430.393 317.22 434.849 321.724C439.306 326.227 441.809 332.336 441.809 338.705C441.809 345.075 439.306 351.183 434.849 355.687C430.393 360.191 424.349 362.721 418.047 362.721Z" fill="#2F2E41"/>
<path d="M384.9 195.023L395.798 203.41L408.94 207.492C408.94 207.492 414.373 284.731 419.268 289.678C424.164 294.626 419.749 294.759 420.732 301.186C421.716 307.614 424.107 320.789 424.107 320.789C391.062 338.468 362.574 338.942 339.69 318.255C339.398 316.975 339.546 315.633 340.112 314.45C340.678 313.268 341.626 312.316 342.8 311.753C347.059 309.469 338.874 298.809 342.355 297.027C345.835 295.244 340.94 279.783 340.94 279.783L344.151 247.523L341.614 242.367L347.806 210.813L358.55 206.848L362.841 196.397L384.9 195.023Z" fill="#149ECA"/>
<path d="M391.727 122.909C391.678 124.304 391.932 125.693 392.472 126.978C393.011 128.263 393.823 129.412 394.85 130.346C395.877 131.279 397.094 131.974 398.415 132.38C399.736 132.787 401.129 132.896 402.497 132.7L417.855 162.869L426.411 147.505L410.515 121.211C410.036 118.911 408.74 116.869 406.871 115.471C405.002 114.073 402.69 113.417 400.374 113.626C398.058 113.835 395.899 114.896 394.305 116.607C392.711 118.318 391.794 120.561 391.727 122.909Z" fill="#FFB6B6"/>
<path d="M417.591 130.291L450.531 181.889L450.423 182.127C450.298 182.399 442.839 198.68 435.611 213.594C434.498 215.89 433.39 218.154 432.316 220.323C431.852 221.258 431.396 222.175 430.946 223.071C427.91 229.12 425.258 234.119 423.674 236.494C420.173 241.863 414.959 245.86 408.899 247.822L408.747 247.861L408.601 247.8C405.637 246.536 403.188 244.289 401.657 241.429C400.126 238.569 399.606 235.268 400.18 232.069C403.038 216.639 409.404 202.091 418.778 189.573L424.118 182.459L405.56 141.683L417.591 130.291Z" fill="#149ECA"/>
<path d="M360.679 116.589C360.728 117.984 360.473 119.373 359.934 120.658C359.394 121.942 358.582 123.092 357.556 124.025C356.529 124.959 355.312 125.653 353.991 126.06C352.67 126.467 351.276 126.576 349.909 126.379L334.551 156.549L325.995 141.184L341.891 114.89C342.369 112.591 343.666 110.549 345.535 109.151C347.404 107.753 349.715 107.096 352.031 107.306C354.347 107.515 356.507 108.576 358.1 110.287C359.694 111.998 360.612 114.24 360.679 116.589Z" fill="#FFB6B6"/>
<path d="M334.815 123.969L301.875 175.567L301.983 175.804C302.108 176.076 309.567 192.358 316.795 207.271C317.908 209.568 319.015 211.832 320.09 214C320.553 214.936 321.01 215.852 321.46 216.749C324.496 222.798 327.148 227.797 328.731 230.172C332.233 235.541 337.447 239.538 343.507 241.499L343.659 241.539L343.804 241.478C346.769 240.214 349.218 237.967 350.749 235.107C352.279 232.247 352.8 228.946 352.225 225.747C349.368 210.316 343.001 195.768 333.628 183.251L328.288 176.137L346.845 135.361L334.815 123.969Z" fill="#149ECA"/>
<path d="M373.744 190.355C385.649 190.355 395.299 180.602 395.299 168.57C395.299 156.539 385.649 146.785 373.744 146.785C361.839 146.785 352.188 156.539 352.188 168.57C352.188 180.602 361.839 190.355 373.744 190.355Z" fill="#FFB6B6"/>
<path d="M356.187 149.854C357.96 144.642 366.784 141.027 381.09 140.525C395.395 140.022 399.024 157.06 399.024 157.06C408.574 164.89 388.826 185.852 387.871 185.097L388.3 181.159C389.011 174.635 392.034 169.545 388.19 162.747L384.499 162.79L377.498 164.15C377.062 164.235 376.61 164.172 376.212 163.972C375.814 163.772 375.493 163.445 375.297 163.041C375.102 162.638 375.043 162.181 375.129 161.741C375.216 161.3 375.444 160.901 375.777 160.604L375.841 160.547L375.682 160.298C373.216 161.442 370.675 162.502 367.979 162.662C364.945 162.842 361.629 161.622 360.176 158.925C359.788 158.184 359.551 157.371 359.479 156.536C355.389 158.187 353.518 163.284 353.518 163.284C353.518 163.284 354.414 155.067 356.187 149.854Z" fill="#2F2E41"/>
<path d="M414.403 441.019L405.773 448.404L373.483 418.278L386.219 407.379L414.403 441.019Z" fill="#FFB6B6"/>
<path d="M423.687 447.589L395.862 471.401L395.564 471.045C393.132 468.142 391.941 464.382 392.252 460.591C392.563 456.8 394.351 453.29 397.223 450.831L397.224 450.831L399.041 442.584L411.789 438.366L414.218 436.287L423.687 447.589Z" fill="#2F2E41"/>
<path d="M361.072 357.719L368.205 342.086C368.125 327.827 356.314 316.247 342.233 317.14C334.391 317.638 327.048 322.071 324.014 335.246C316.213 369.124 392.76 439.625 392.76 439.625L406.826 430.84L407.474 421.559L399.597 416.652L399.59 408.737L392.079 405.137L361.072 357.719Z" fill="#212121"/>
<path d="M407.932 353.413L399.115 340.312C398.035 326.094 408.863 313.571 422.97 313.292C430.825 313.136 438.504 316.944 442.6 329.822C453.131 362.937 382.578 439.561 382.578 439.561L367.846 431.974L366.445 422.779L373.896 417.234L373.259 409.345L380.452 405.132L407.932 353.413Z" fill="#2F2E41"/>
<path d="M376.9 246.122V250.308H363.167V246.122H367.42V236.036L363.445 238.34V233.816L369.561 230.305H372.619V246.122L376.9 246.122Z" fill="white"/>
<path d="M379.999 247.921C378.692 246.161 378.039 243.614 378.039 240.28C378.039 237.002 378.692 234.487 379.999 232.736C380.693 231.913 381.556 231.251 382.528 230.798C383.5 230.344 384.557 230.109 385.628 230.109C386.698 230.109 387.756 230.344 388.728 230.798C389.7 231.251 390.563 231.913 391.257 232.736C392.563 234.487 393.217 237.002 393.217 240.28C393.217 243.613 392.563 246.16 391.257 247.921C390.565 248.748 389.703 249.413 388.731 249.869C387.759 250.325 386.7 250.562 385.628 250.562C384.556 250.562 383.497 250.325 382.525 249.869C381.553 249.413 380.691 248.748 379.999 247.921ZM387.546 245.126C388.015 243.556 388.213 241.917 388.13 240.28C388.211 238.674 388.013 237.067 387.546 235.531C387.426 235.11 387.175 234.74 386.829 234.477C386.483 234.213 386.061 234.07 385.628 234.07C385.195 234.07 384.773 234.213 384.427 234.477C384.081 234.74 383.829 235.11 383.71 235.531C383.242 237.067 383.045 238.674 383.126 240.28C383.043 241.917 383.241 243.556 383.71 245.126C383.826 245.55 384.076 245.924 384.423 246.19C384.769 246.456 385.193 246.601 385.628 246.601C386.063 246.601 386.486 246.456 386.833 246.19C387.179 245.924 387.43 245.55 387.546 245.126Z" fill="white"/>
<path d="M230.454 467.907L219.91 467.906L214.894 426.801L230.456 426.801L230.454 467.907Z" fill="#A0616A"/>
<path d="M230.826 479.025L198.4 479.024V478.609C198.4 475.226 199.73 471.982 202.097 469.59C204.464 467.198 207.674 465.854 211.021 465.854H211.022L216.945 461.312L227.996 465.855L230.826 465.855L230.826 479.025Z" fill="#2F2E41"/>
<path d="M305.064 467.907L315.608 467.906L320.624 426.801L305.062 426.801L305.064 467.907Z" fill="#A0616A"/>
<path d="M304.692 479.025L337.118 479.024V478.609C337.118 475.226 335.788 471.982 333.421 469.59C331.054 467.198 327.844 465.854 324.497 465.854H324.496L318.573 461.312L307.522 465.855L304.692 465.855L304.692 479.025Z" fill="#2F2E41"/>
<path d="M214.429 396.595C214.585 394.25 215.823 381.278 215.823 381.278L218.789 353.769L224.017 280.849L224.358 276.076L251.74 270.763L270.454 261.695L292.698 268.882L310.018 275.446C310.018 275.446 310.048 278.256 310.181 281.651C310.359 286.095 310.671 291.542 311.412 292.959C312.65 295.462 312.339 308.898 312.339 308.898C312.339 308.898 313.57 336.234 315.119 339.232C316.669 342.229 316.981 348.471 316.513 349.723C316.046 350.974 318.063 383.804 318.063 383.804C318.063 383.804 323.239 441.9 319.992 450.66C316.744 459.42 304.472 453.681 304.472 453.681C304.472 453.681 305.065 451.343 301.506 450.242C297.947 449.14 287.107 366.763 287.107 366.763C287.107 366.763 285.09 349.873 283.237 345.032C281.383 340.191 279.678 326.59 279.678 326.59C279.678 326.59 268.23 304.079 268.081 299.073C268.081 299.073 266.584 294.39 265.167 299.546C263.751 304.701 259.577 317.051 259.577 317.051L255.506 332.218L250.716 354.878L247.617 373.957C247.617 373.957 242.976 399.278 242.234 400.372C241.493 401.466 242.234 424.599 242.234 424.599C242.234 424.599 238.645 444.299 233.574 447.739C228.502 451.179 215.066 447.794 215.066 447.794C215.066 447.794 214.274 398.941 214.429 396.595Z" fill="#2F2E41"/>
<path d="M226.112 200.007L232.199 216.117L224.688 223.973L227.995 226.963L225.556 231.191L219.194 275.5L254.072 287.121L265.816 274.184L275.077 287.121L315.435 278.457L305.144 221.953V218.26L302.238 211.127V196.027L315.583 151.08L287.008 144.031L276.057 136.416L272.512 147.126L257.424 144.767L257.03 136.722L245.486 146.305L230.093 148.741L218.453 151.08L216.97 154.337L219.935 153.685L225.126 196.06L226.112 200.007Z" fill="#2F2E41"/>
<path d="M249.582 156.512L257.03 136.768L276.056 136.416L282.369 156.512L305.062 284.629C305.062 284.629 235.542 304.195 236.247 280.675C236.988 255.946 240.334 223.098 240.334 223.098L249.582 156.512Z" fill="#3F3D56"/>
<path d="M266.118 131.246C278.496 131.246 288.53 121.105 288.53 108.595C288.53 96.0847 278.496 85.9434 266.118 85.9434C253.74 85.9434 243.705 96.0847 243.705 108.595C243.705 121.105 253.74 131.246 266.118 131.246Z" fill="#A0616A"/>
<path d="M242.384 92.1615C246.032 88.1477 250.596 80.8004 264.42 77.7151C281.502 73.9027 289.573 89.4981 285.266 89.7537C297.862 93.6087 289.77 119.953 286.159 117.744C286.128 117.722 286.098 117.698 286.07 117.673C284.128 116.228 282.498 114.397 281.279 112.294C280.061 110.19 279.279 107.858 278.983 105.438L278.297 99.2043C278.2 104.277 273.07 104.948 267.829 103.079C268.139 101.967 268.73 100.956 269.545 100.146C270.36 99.335 271.369 98.7531 272.474 98.4572C269.269 101.446 265.096 103.584 259.267 104.265C259.983 101.466 261.408 99.406 263.639 98.1849L263.432 97.9795C261.297 99.6221 259.071 101.201 256.504 101.945C253.615 102.781 250.153 102.329 248.174 100.043C247.641 99.4126 247.239 98.6804 246.99 97.8899C247.418 101.907 244.752 106.492 242.681 105.705C240.959 105.367 239.954 94.8335 242.384 92.1615Z" fill="#2F2E41"/>
<path d="M293.752 107.346L314.135 142.004L329.201 134.813C329.201 134.813 303.241 102.044 302.414 101.101C302.768 99.5083 302.636 97.8444 302.034 96.3295C301.432 94.8145 300.389 93.5199 299.043 92.617C297.698 91.714 296.112 91.2452 294.497 91.2726C292.882 91.3 291.314 91.8223 289.999 92.7703C288.684 93.7184 287.684 95.0476 287.133 96.5821C286.582 98.1166 286.505 99.7841 286.911 101.364C287.318 102.944 288.19 104.362 289.412 105.43C290.633 106.498 292.147 107.166 293.752 107.346Z" fill="#A0616A"/>
<path d="M303.621 193.472L335.255 170.44C337.319 168.938 339.05 167.016 340.337 164.799C341.624 162.582 342.439 160.118 342.731 157.564C343.022 155.01 342.783 152.423 342.028 149.968C341.274 147.513 340.021 145.244 338.35 143.306L315.583 116.912L305.665 130.495L313.31 146.649L298.508 150.594L303.621 193.472Z" fill="#2F2E41"/>
<path d="M249.325 110.602L228.942 145.26L213.876 138.069C213.876 138.069 239.836 105.3 240.664 104.357C240.309 102.764 240.442 101.1 241.044 99.5853C241.646 98.0704 242.688 96.7758 244.034 95.8728C245.38 94.9699 246.965 94.5011 248.58 94.5285C250.195 94.5559 251.764 95.0781 253.079 96.0262C254.394 96.9743 255.393 98.3035 255.944 99.838C256.496 101.372 256.573 103.04 256.166 104.62C255.759 106.2 254.887 107.617 253.666 108.686C252.444 109.754 250.931 110.422 249.325 110.602Z" fill="#A0616A"/>
<path d="M239.457 196.73L207.823 173.698C205.759 172.195 204.028 170.274 202.741 168.057C201.453 165.84 200.638 163.375 200.347 160.822C200.056 158.268 200.295 155.681 201.049 153.226C201.804 150.771 203.056 148.502 204.728 146.564L227.494 120.17L237.412 133.753L229.768 149.907L244.57 153.852L239.457 196.73Z" fill="#2F2E41"/>
<path d="M271.462 190.283C272.177 191.136 272.553 192.228 272.518 193.345C272.542 194.452 272.189 195.533 271.517 196.407C270.792 197.311 269.836 197.996 268.751 198.388C266.132 199.306 263.282 199.306 260.662 198.388C259.578 197.997 258.621 197.311 257.897 196.407C257.225 195.533 256.871 194.452 256.895 193.345C256.859 192.215 257.235 191.11 257.952 190.241C258.736 189.36 259.778 188.754 260.926 188.513C259.92 188.197 259.023 187.598 258.341 186.785C257.713 186.015 257.378 185.043 257.396 184.046C257.377 182.998 257.716 181.976 258.355 181.152C259.041 180.294 259.944 179.639 260.968 179.256C263.385 178.376 266.029 178.376 268.446 179.256C269.47 179.639 270.373 180.294 271.059 181.152C271.698 181.976 272.037 182.998 272.018 184.046C272.035 185.063 271.696 186.053 271.059 186.841C270.398 187.652 269.512 188.244 268.515 188.541C269.651 188.803 270.679 189.411 271.462 190.283ZM266.875 194.553C267.143 194.379 267.361 194.137 267.508 193.851C267.654 193.565 267.723 193.245 267.709 192.924C267.717 192.598 267.648 192.276 267.507 191.983C267.367 191.69 267.16 191.434 266.903 191.238C266.314 190.661 265.527 190.339 264.707 190.339C263.887 190.339 263.099 190.661 262.511 191.238C262.254 191.434 262.047 191.689 261.906 191.983C261.766 192.276 261.697 192.598 261.705 192.924C261.69 193.245 261.76 193.565 261.906 193.851C262.052 194.137 262.271 194.379 262.539 194.553C263.203 194.922 263.949 195.115 264.707 195.115C265.465 195.115 266.211 194.922 266.875 194.553ZM262.942 183.077C262.71 183.266 262.526 183.509 262.408 183.785C262.289 184.062 262.239 184.363 262.261 184.664C262.261 185.9 263.076 186.724 264.707 187.136C266.337 186.725 267.153 185.901 267.153 184.664C267.175 184.363 267.125 184.062 267.006 183.785C266.887 183.509 266.704 183.266 266.472 183.077C265.945 182.737 265.332 182.557 264.707 182.557C264.082 182.557 263.469 182.737 262.942 183.077Z" fill="white"/>
<path d="M20.9047 123.649C21.3907 124.375 22.0284 124.985 22.7728 125.435C23.5172 125.885 24.3502 126.165 25.2132 126.255C26.0761 126.344 26.9481 126.242 27.7675 125.954C28.587 125.666 29.334 125.2 29.9561 124.589L48.799 134.157L47.5152 123.158L29.8185 115.759C28.7334 114.771 27.3275 114.22 25.867 114.209C24.4065 114.199 22.993 114.73 21.8943 115.703C20.7956 116.675 20.088 118.021 19.9056 119.486C19.7232 120.95 20.0787 122.432 20.9047 123.649Z" fill="#9E616A"/>
<path d="M98.8573 168.043L89.4753 161.504C89.4753 161.504 78.7315 160.768 77.1157 157.316C75.4998 153.864 75.2275 155.024 73.505 154.611C71.7824 154.198 70.8935 149.003 68.006 149.616C61.5095 150.995 30.9569 130.591 34.2544 128.041L36.7055 117.596C39.2954 118.573 41.9957 119.22 44.744 119.522C48.8994 119.906 58.69 124.704 60.1402 126.277C61.5903 127.851 64.1594 127.241 67.6045 128.067C71.0496 128.892 72.2553 134.493 77.9692 133.003C86.0089 130.906 127.66 150.872 132.167 152.736C137.112 154.781 140.566 160.878 140.566 160.878L139.204 166.681L98.8573 168.043Z" fill="#149ECA"/>
<path d="M166.567 464.705H174.743L178.634 432.83H166.566L166.567 464.705Z" fill="#9E616A"/>
<path d="M163.898 459.046L176.961 458.258V463.914L189.381 472.583C189.995 473.012 190.457 473.627 190.7 474.339C190.943 475.051 190.954 475.823 190.733 476.543C190.511 477.262 190.067 477.891 189.467 478.337C188.866 478.784 188.14 479.025 187.395 479.024H171.842L169.161 473.429L168.115 479.024H162.25L163.898 459.046Z" fill="#2F2E41"/>
<path d="M64.082 457.685L71.6792 460.742L86.9591 432.581L75.7468 428.07L64.082 457.685Z" fill="#9E616A"/>
<path d="M63.674 451.43L76.0997 455.581L74.0297 460.836L82.3966 473.533C82.8099 474.16 83.014 474.904 82.9793 475.657C82.9445 476.409 82.6726 477.131 82.2032 477.716C81.7339 478.302 81.0916 478.72 80.3703 478.91C79.649 479.101 78.8864 479.053 78.1938 478.775L63.7439 472.961L63.3008 466.761L60.2807 471.568L54.8325 469.376L63.674 451.43Z" fill="#2F2E41"/>
<path d="M150.084 369.856L136.449 305.547L115.157 377L81.4422 444.756L81.2636 445.116L70.584 439.305C69.0768 411.793 72.6564 386.012 85.7489 363.468L91.9485 301.592C92.1385 299.477 96.763 249.841 111.406 241.039L115.695 231.156L158.348 220.51L158.503 220.686C162.605 225.346 165.314 231.085 166.316 237.238L179.061 315.271L179.069 315.315L175.651 369.752L180.326 450.064H163.412C152.948 430.165 148.506 403.43 150.084 369.856Z" fill="#2F2E41"/>
<path d="M186.802 100.144C187.452 100.725 187.968 101.442 188.314 102.246C188.66 103.05 188.827 103.921 188.804 104.798C188.781 105.674 188.569 106.535 188.181 107.319C187.793 108.103 187.24 108.792 186.56 109.337L193.525 129.453L182.898 126.752L177.913 108.064C177.083 106.849 176.723 105.369 176.901 103.904C177.078 102.439 177.782 101.09 178.877 100.114C179.973 99.138 181.385 98.6019 182.845 98.6075C184.306 98.613 185.713 99.1598 186.802 100.144Z" fill="#9E616A"/>
<path d="M103.123 252.092C101.975 252.092 101.322 251.864 101.069 251.376C100.699 250.66 101.342 249.724 102.087 248.639C102.606 247.884 104.124 246.382 103.378 246.29C92.0628 244.893 97.4942 174.39 102.398 165.07C103.394 163.177 102.34 160.272 103.462 157.058C106.527 148.282 110.71 145.585 119.044 140.213C119.72 139.777 120.425 139.321 121.157 138.846C122.105 138.231 122.052 136.191 121.996 134.03C121.934 131.629 121.87 129.146 123.034 127.594L123.11 127.493L123.232 127.464C126.047 126.806 135.515 125.585 141.122 127.473L141.2 127.5L141.258 127.558C142.59 128.904 142.711 131.512 142.829 134.033C142.925 136.103 143.016 138.058 143.769 138.907C149.53 145.397 156.065 145.271 156.131 145.269L156.455 145.26L156.487 145.585C160.526 153.355 157.363 182.212 160.171 200.137C163.023 218.348 187.383 233.849 166.525 236.602C166.569 236.672 166.594 236.753 166.597 236.836C166.599 236.92 166.579 237.002 166.539 237.075C165.279 239.455 107.453 252.092 103.123 252.092Z" fill="#149ECA"/>
<path d="M197.418 163.293L185.841 169.097C163.532 177.758 151.873 175.648 146.015 172.356C139.765 168.842 138.681 163.456 138.639 163.229L138.635 163.119L140.063 151.686C140.244 150.234 140.729 148.837 141.485 147.589C142.241 146.34 143.251 145.268 144.448 144.444C145.645 143.62 147.002 143.063 148.428 142.809C149.854 142.555 151.318 142.61 152.721 142.971L179.357 149.822L178.871 136.754L179.925 132.049L177.982 126.33L178.778 114.844L188.332 112.48L198.354 130.622L196.553 135.629L198.25 138.122L198.246 138.237L197.418 163.293Z" fill="#149ECA"/>
<path d="M139.338 172.459V176.392L130.72 192.462H125.161L133.75 176.645H124.632V172.459L139.338 172.459Z" fill="white"/>
<path d="M359.626 74.4321C366.027 60.677 360.847 44.5974 351.597 40.2007C342.348 35.804 326.79 42.0257 320.388 55.7808C314.463 68.5128 318.877 83.4253 326.474 88.858C326.346 88.896 326.227 88.9584 326.122 89.0418L324.297 90.5613C324.158 90.6771 324.05 90.827 323.984 90.9966C323.918 91.1663 323.897 91.3501 323.921 91.5306C323.945 91.7111 324.015 91.8823 324.123 92.028C324.232 92.1737 324.375 92.2891 324.54 92.363L329.144 94.4308C329.308 94.5048 329.489 94.535 329.668 94.5185C329.848 94.5021 330.02 94.4395 330.169 94.3368C330.318 94.2341 330.439 94.0946 330.519 93.9316C330.6 93.7686 330.638 93.5875 330.63 93.4055L330.522 91.0179C330.517 90.9348 330.501 90.8527 330.477 90.7733C339.471 93.2712 353.688 87.1917 359.626 74.4321Z" fill="#CCCCCC"/>
<path d="M354.383 54.7046C355.836 58.9654 355.615 63.6272 353.765 67.728C351.916 71.8287 348.579 75.0553 344.444 76.7418C343.502 77.138 344.254 78.5505 345.19 78.1568C349.621 76.291 353.191 72.8008 355.183 68.3863C357.175 63.9718 357.443 58.9593 355.931 54.354C355.611 53.3826 354.061 53.7261 354.383 54.7046Z" fill="white"/>
<path d="M471.934 120.523C484.887 112.796 489.562 96.5596 484.367 87.6631C479.171 78.7667 462.847 75.0567 449.894 82.783C437.905 89.9346 433.246 104.771 436.499 113.583C436.372 113.542 436.239 113.525 436.106 113.535L433.751 113.752C433.571 113.769 433.399 113.831 433.25 113.934C433.101 114.037 432.981 114.177 432.901 114.34C432.82 114.503 432.782 114.684 432.791 114.866C432.799 115.048 432.853 115.225 432.948 115.379L435.601 119.708C435.696 119.863 435.829 119.991 435.986 120.079C436.144 120.168 436.321 120.214 436.502 120.214C436.682 120.214 436.859 120.167 437.017 120.078C437.174 119.989 437.306 119.861 437.401 119.706L438.642 117.672C438.684 117.6 438.717 117.523 438.741 117.444C444.783 124.625 459.919 127.69 471.934 120.523Z" fill="#149ECA"/>
<path d="M478.59 101.234C477.417 105.582 474.638 109.309 470.825 111.646C467.012 113.983 462.457 114.751 458.1 113.792C457.101 113.584 456.935 115.179 457.928 115.386C462.63 116.365 467.525 115.512 471.63 112.997C475.736 110.482 478.749 106.491 480.065 101.825C480.342 100.84 478.869 100.242 478.59 101.234Z" fill="white"/>
<path d="M389.49 57.3442C387.858 53.7152 387.101 49.7472 387.279 45.7652C387.458 41.7833 388.568 37.9008 390.518 34.4361C391.074 33.46 391.628 32.2785 392.847 32.0909C393.307 32.0062 393.783 32.0819 394.195 32.3056C394.608 32.5293 394.933 32.8878 395.118 33.3226C395.281 33.9009 395.251 34.5173 395.033 35.0768C394.815 35.6362 394.421 36.1076 393.911 36.4183C393.402 36.729 392.805 36.8616 392.214 36.7958C391.623 36.73 391.069 36.4694 390.639 36.0541C388.328 34.1722 388.621 30.8603 388.843 28.1942C389.35 22.1194 389.342 15.7418 386.785 10.0878C384.419 4.85661 379.589 0.481028 373.756 0.00315765C372.735 -0.0804229 372.677 1.52226 373.693 1.60544C379.478 2.07939 384.005 6.89649 385.928 12.1686C387.014 15.3427 387.554 18.6812 387.525 22.0396C387.544 23.7633 387.465 25.4869 387.334 27.2052C387.134 28.8803 387.082 30.5699 387.178 32.2542C387.45 35.003 389.095 37.9502 392.036 38.3894C394.78 38.7992 397.459 35.8986 396.717 33.1424C396.538 32.5465 396.216 32.0049 395.779 31.5659C395.341 31.127 394.803 30.8046 394.213 30.6276C393.622 30.4506 392.997 30.4245 392.394 30.5516C391.79 30.6788 391.228 30.9552 390.756 31.3562C389.726 32.2256 389.057 33.7189 388.469 34.9121C386.694 38.5021 385.738 42.4488 385.673 46.4615C385.607 50.4742 386.433 54.4507 388.09 58.098C388.525 59.0322 389.924 58.276 389.49 57.3442Z" fill="#CCCCCC"/>
<path d="M149.996 132.086C149.398 130.983 148.37 127.83 147.216 127.872C146.036 127.924 144.854 127.823 143.7 127.57C143.574 127.549 143.449 127.521 143.331 127.492C138.458 126.263 133.461 125.604 128.438 125.526C124.387 125.47 119.939 125.961 117.111 128.89C114.282 131.819 114.699 137.859 118.598 138.976C105.569 141.256 92.1759 138.256 81.3207 130.625C74.4198 125.723 68.888 119.155 63.0365 113.017C57.185 106.871 50.7359 100.964 42.8482 97.9583C34.9535 94.9452 25.3006 95.3666 18.9418 100.978C11.1862 107.819 10.5885 119.591 10.5816 129.993C10.5746 133.884 11.7769 133.062 15.1752 134.895C18.3303 136.595 21.6452 140.093 23.5702 137.052C25.4952 134.01 25.8358 130.253 26.2319 126.664C26.6211 123.075 27.1979 119.296 29.4495 116.494C33.3204 111.675 40.944 111.626 46.2882 114.681C51.6324 117.737 55.2253 123.082 58.6236 128.251C62.0219 133.413 65.6079 138.772 70.9451 141.849C77.9571 145.887 86.7622 145.29 94.08 148.732C98.7293 150.923 102.489 154.596 106.346 158.003C110.21 161.409 114.442 164.689 119.453 165.792C124.456 166.902 130.398 165.23 132.858 160.686C135.075 156.577 133.991 151.316 135.965 147.074C137.487 143.801 140.593 141.631 143.394 139.369C144.547 138.435 144.846 141.652 145.826 140.514C148.655 139.945 151.309 134.509 149.996 132.086Z" fill="#3F3D56"/>
<path d="M130.51 126.275C142.638 126.275 152.469 116.339 152.469 104.082C152.469 91.8249 142.638 81.8887 130.51 81.8887C118.382 81.8887 108.551 91.8249 108.551 104.082C108.551 116.339 118.382 126.275 130.51 126.275Z" fill="#2F2E41"/>
<path d="M132.278 128.106C140.99 127.856 147.852 120.516 147.606 111.711C147.359 102.906 140.096 95.9707 131.384 96.2202C122.672 96.4696 115.809 103.81 116.056 112.615C116.303 121.42 123.566 128.355 132.278 128.106Z" fill="#9E616A"/>
<path d="M131.983 87.8398L125.586 88.023C121.554 88.1417 117.734 89.8721 114.964 92.8344C112.193 95.7966 110.699 99.7488 110.808 103.823L110.812 103.967L110.929 104.04C114.406 106.366 118.51 107.546 122.678 107.419L123.037 107.408L126.572 107.247C127.167 105.699 127.365 104.025 127.15 102.38C127.684 103.94 128.101 105.538 128.397 107.161L144.256 106.432C145.179 106.385 146.048 105.977 146.676 105.292C147.305 104.608 147.645 103.703 147.622 102.769C147.503 98.6948 145.79 94.8345 142.858 92.0356C139.926 89.2366 136.015 87.7277 131.983 87.8398Z" fill="#2F2E41"/>
<path d="M119.235 83.8378C117.791 85.6373 115.473 86.3871 113.39 87.3617C109.714 89.1184 106.518 91.7547 104.079 95.042C101.639 98.3293 100.03 102.168 99.3908 106.226C98.8999 109.531 99.0716 112.932 98.2406 116.163C97.415 119.395 95.2364 122.604 91.9989 123.254C89.8081 123.697 87.5771 122.901 85.4827 122.112C84.3309 121.682 83.179 121.25 82.0271 120.817C83.1305 117.77 84.2322 114.724 85.332 111.677C83.5084 114.575 81.3683 117.256 78.9519 119.67C74.824 118.124 70.6924 116.578 66.5571 115.032C76.6172 114.782 74.624 104.962 76.5969 94.9962C77.6813 89.5197 88.111 85.5338 90.0311 80.2979C91.0683 77.4582 92.8887 74.9782 95.277 73.1514C97.6653 71.3247 100.521 70.2276 103.507 69.9902C106.493 69.7528 109.484 70.3849 112.126 71.8117C114.767 73.2385 116.949 75.4002 118.413 78.0411C120.501 78.8136 120.652 82.0611 119.235 83.8378Z" fill="#2F2E41"/>
<path d="M120.241 90.4382C124.757 90.4382 128.418 86.7382 128.418 82.1742C128.418 77.6101 124.757 73.9102 120.241 73.9102C115.725 73.9102 112.064 77.6101 112.064 82.1742C112.064 86.7382 115.725 90.4382 120.241 90.4382Z" fill="#2F2E41"/>
</g>
<defs>
<clipPath id="clip0_545_2905">
<rect width="522" height="480" fill="white"/>
</clipPath>
</defs>
</svg>
