<svg width="23" height="27" viewBox="0 0 23 27" fill="none" xmlns="http://www.w3.org/2000/svg">
<path d="M2.87341 10.1211V6.32422C2.87341 5.76478 3.06273 5.22825 3.39971 4.83267C3.73668 4.43708 4.19373 4.21484 4.67029 4.21484H8.07941C8.4342 4.21485 8.78104 4.33816 9.07623 4.56922L10.3268 5.54797C10.622 5.77903 10.9689 5.90233 11.3237 5.90234H18.3265C18.8031 5.90234 19.2601 6.12458 19.5971 6.52017C19.9341 6.91575 20.1234 7.45228 20.1234 8.01172V10.1211" stroke="#33363F" stroke-width="2" stroke-linecap="round" stroke-linejoin="round"/>
<path d="M21.5585 11.9431L20.8298 20.668C20.8298 21.2268 20.6409 21.7627 20.3046 22.1582C19.9683 22.5537 19.5121 22.7764 19.0361 22.7773H3.9648C3.48879 22.7764 3.03255 22.5537 2.69625 22.1582C2.35995 21.7627 2.17107 21.2268 2.17107 20.668L1.44244 11.9431C1.42662 11.7109 1.45194 11.4773 1.51678 11.2572C1.58162 11.037 1.68459 10.835 1.8192 10.6638C1.95382 10.4927 2.11716 10.3561 2.29894 10.2627C2.48072 10.1693 2.67701 10.1211 2.87545 10.1211H20.1299C20.328 10.1218 20.5238 10.1706 20.705 10.2643C20.8863 10.358 21.0491 10.4947 21.1832 10.6658C21.3173 10.8369 21.4199 11.0386 21.4845 11.2584C21.5491 11.4782 21.5742 11.7113 21.5585 11.9431Z" stroke="#33363F" stroke-width="2" stroke-linecap="round" stroke-linejoin="round"/>
</svg>
