<svg width="67" height="72" viewBox="0 0 67 72" fill="none" xmlns="http://www.w3.org/2000/svg">
<rect x="6.43451" y="4.79297" width="34.7903" height="36.0064" fill="white"/>
<path fill-rule="evenodd" clip-rule="evenodd" d="M38.1527 15.547H38.1338H15.3614L15.9059 20.6408H37.6108C37.2927 25.1029 36.3302 34.5566 35.9771 38.8583L23.7861 42.165V42.1749L23.7592 42.1874L11.5601 38.0512L10.7244 28.2814H16.7039L17.1272 33.5357L23.7699 35.9221H23.7861L30.4181 33.6302L31.1002 25.7346H10.4575C10.3577 24.7132 9.07447 11.4516 8.85071 10.4532H38.6865C38.5193 12.1341 38.3495 13.8609 38.1527 15.547ZM0 0.265625L4.32965 46.4865L23.7592 51.2035L43.2399 46.392L47.5749 0.265625H0Z" fill="#F16529"/>
<rect x="25.442" y="24.793" width="34.7903" height="36.0064" fill="white"/>
<rect x="25.442" y="24.793" width="34.7903" height="36.0064" fill="white"/>
<path d="M66.9877 21.0566L62.582 67.0418L43.4936 71.9945L24.4049 67.0418L20 21.0566H66.9877ZM58.1099 30.407H43.4764H28.5837L29.2959 35.9602H43.4764H44.2729L43.4764 36.2796L29.8142 41.7628L30.2673 47.1909L43.4764 47.2321L50.5561 47.2538L50.1029 54.4913L43.4763 56.2891V56.2834L43.422 56.298L37.0224 54.7412L36.634 50.2485H36.6128H30.6768H30.6559L31.4329 58.9217L43.4765 62.3536V62.3475L43.4982 62.3536L55.4772 58.9842L57.0311 41.7628H43.4765H43.4431L43.4765 41.7489L57.5277 35.9602L58.1099 30.407Z" fill="#33AADD"/>
<path d="M66.9877 21.0566L62.582 67.0418L43.4936 71.9945L24.4049 67.0418L20 21.0566H66.9877ZM58.1099 30.407H43.4764H28.5837L29.2959 35.9602H43.4764H44.2729L43.4764 36.2796L29.8142 41.7628L30.2673 47.1909L43.4764 47.2321L50.5561 47.2538L50.1029 54.4913L43.4763 56.2891V56.2834L43.422 56.298L37.0224 54.7412L36.634 50.2485H36.6128H30.6768H30.6559L31.4329 58.9217L43.4765 62.3536V62.3475L43.4982 62.3536L55.4772 58.9842L57.0311 41.7628H43.4765H43.4431L43.4765 41.7489L57.5277 35.9602L58.1099 30.407Z" fill="#33AADD"/>
</svg>
