<svg width="25" height="28" viewBox="0 0 25 28" fill="none" xmlns="http://www.w3.org/2000/svg">
<path d="M6.25 22.4H18.75V19.6H6.25V22.4ZM6.25 16.8H18.75V14H6.25V16.8ZM3.125 28C2.26562 28 1.52995 27.7258 0.917969 27.1775C0.30599 26.6292 0 25.97 0 25.2V2.8C0 2.03 0.30599 1.37083 0.917969 0.8225C1.52995 0.274167 2.26562 0 3.125 0H15.625L25 8.4V25.2C25 25.97 24.694 26.6292 24.082 27.1775C23.4701 27.7258 22.7344 28 21.875 28H3.125ZM14.0625 9.8V2.8H3.125V25.2H21.875V9.8H14.0625Z" fill="#33363F"/>
</svg>
