<svg width="24" height="24" viewBox="0 0 24 24" fill="none" xmlns="http://www.w3.org/2000/svg">
<g clip-path="url(#clip0_97_16595)">
<path fill-rule="evenodd" clip-rule="evenodd" d="M11.7662 0C5.25982 0 0 5.40833 0 12.0992C0 17.4475 3.37015 21.9748 8.04543 23.5771C8.62996 23.6976 8.84408 23.3168 8.84408 22.9965C8.84408 22.716 8.82481 21.7545 8.82481 20.7527C5.55172 21.474 4.87013 19.3104 4.87013 19.3104C4.34412 17.9082 3.56475 17.5478 3.56475 17.5478C2.49347 16.8066 3.64278 16.8066 3.64278 16.8066C4.83111 16.8868 5.45466 18.0486 5.45466 18.0486C6.50643 19.8913 8.20126 19.3707 8.88309 19.0501C8.98039 18.2688 9.29229 17.728 9.62345 17.4276C7.01293 17.1471 4.26633 16.1055 4.26633 11.458C4.26633 10.1359 4.73357 9.05428 5.47393 8.21304C5.35712 7.91263 4.94792 6.67043 5.59098 5.00787C5.59098 5.00787 6.58447 4.6873 8.82457 6.24981C9.78363 5.98497 10.7727 5.85024 11.7662 5.84911C12.7597 5.84911 13.7725 5.98948 14.7077 6.24981C16.948 4.6873 17.9415 5.00787 17.9415 5.00787C18.5846 6.67043 18.1751 7.91263 18.0583 8.21304C18.8182 9.05428 19.2662 10.1359 19.2662 11.458C19.2662 16.1055 16.5196 17.1269 13.8895 17.4276C14.3182 17.8081 14.6882 18.5292 14.6882 19.6711C14.6882 21.2936 14.6689 22.5957 14.6689 22.9962C14.6689 23.3168 14.8833 23.6976 15.4676 23.5774C20.1428 21.9745 23.513 17.4475 23.513 12.0992C23.5323 5.40833 18.2532 0 11.7662 0Z" fill="#24292F"/>
</g>
<defs>
<clipPath id="clip0_97_16595">
<rect width="23.513" height="24" fill="white"/>
</clipPath>
</defs>
</svg>
