<svg width="175" height="34" viewBox="0 0 175 34" fill="none" xmlns="http://www.w3.org/2000/svg">
<g id="logo" clip-path="url(#clip0_31_355)">
<g id="SvgjsG2749">
<g id="Group">
<path id="Vector" d="M36.7493 17C36.763 16.9881 24.1811 6.08488 24.1811 6.08488C23.8776 5.8233 23.9742 5.39526 24.3466 5.24069C26.8437 4.18247 29.9202 4.49161 32.031 6.22756C33.4244 7.3809 34.128 8.93851 34.1142 10.4723C34.1142 10.7577 34.2522 11.0312 34.4867 11.2333L37.7702 14.0631C38.0875 14.3366 38.6393 14.2296 38.7773 13.8729C40.2534 10.2107 39.3015 5.97787 35.9077 3.05291C31.493 -0.751926 24.4708 -0.989729 19.725 2.32761C19.7112 2.31572 7.06025 13.1595 7.06025 13.1595C6.75674 13.4211 6.26008 13.3378 6.08073 13.0168C4.85289 10.8647 5.21158 8.21321 7.2258 6.39403C8.56401 5.19312 10.3713 4.58673 12.151 4.59862C12.4821 4.59862 12.7994 4.47972 13.0339 4.27759L16.3174 1.44774C16.6347 1.17427 16.5105 0.698666 16.0966 0.579765C11.8475 -0.692476 6.93608 0.127941 3.54227 3.05291C-0.872455 6.85774 -1.14838 12.9098 2.70071 17C2.68691 17.0119 15.2689 27.9151 15.2689 27.9151C15.5724 28.1767 15.4758 28.6047 15.1033 28.7593C12.6062 29.8175 9.52973 29.5084 7.41894 27.7724C6.02555 26.6191 5.32195 25.0615 5.33575 23.5277C5.33575 23.2423 5.19779 22.9688 4.96325 22.7667L1.67981 19.9369C1.3625 19.6634 0.810657 19.7704 0.672697 20.1271C-0.803475 23.7892 0.148449 28.0221 3.54227 30.9471C7.95699 34.7519 14.9792 34.9897 19.725 31.6724C19.7388 31.6843 32.3897 20.8405 32.3897 20.8405C32.6932 20.5789 33.1899 20.6621 33.3692 20.9832C34.5971 23.1353 34.2384 25.7868 32.2242 27.606C30.8859 28.8069 29.0787 29.4133 27.299 29.4014C26.9679 29.4014 26.6506 29.5203 26.416 29.7224L23.1326 32.5523C22.8153 32.8257 22.9394 33.3013 23.3533 33.4202C27.6025 34.6925 32.5139 33.8721 35.9077 30.9471C40.3224 27.1423 40.5983 21.0902 36.7493 17ZM31.0515 19.0689C29.2028 18.5338 27.0507 18.9024 25.5745 20.1747C25.5745 20.1747 19.9733 25.002 17.7935 26.8807C17.628 27.0234 17.3383 26.8807 17.4073 26.6785C17.9591 25.0972 17.5176 23.3255 16.0828 22.0771C16.0828 22.0771 10.4403 17.214 8.15013 15.2284C7.98458 15.0857 8.16393 14.836 8.38466 14.8954C10.2333 15.4305 12.3855 15.0619 13.8617 13.7897C13.8617 13.7897 19.4353 8.98607 21.8496 6.91719C22.0151 6.77451 22.3186 6.92908 22.2359 7.11932C21.5461 8.74827 21.9599 10.6388 23.4913 11.9586C23.4913 11.9586 29.0373 16.7384 31.3136 18.7122C31.4654 18.8905 31.286 19.1402 31.0515 19.0689Z" fill="#149ECA"/>
</g>
</g>
<g id="SvgjsG2750">
<path id="Vector_2" d="M48.7603 7.15293H53.8866V26.5331H48.7603V7.15293ZM69.5486 19.5942L66.2464 19.5942L68.3221 16.1247H74.4234V25.9368C73.2073 26.2981 72.0384 26.5376 70.9167 26.655C69.795 26.7725 68.8147 26.8312 67.9761 26.8312C66.1311 26.8312 64.527 26.5873 63.1643 26.0994C61.8016 25.6115 60.6692 24.9338 59.7677 24.0665C58.8662 23.1991 58.1952 22.16 57.7549 20.9494C57.3146 19.7387 57.0945 18.4106 57.0945 16.9649C57.0945 15.5193 57.3251 14.182 57.7864 12.9534C58.2476 11.7247 58.9238 10.663 59.8149 9.76852C60.706 8.87405 61.812 8.1784 63.1329 7.68143C64.4537 7.18445 65.9633 6.93604 67.6616 6.93604C68.6471 6.93604 69.5958 6.99927 70.5079 7.12577C71.4199 7.25227 72.442 7.5143 73.5742 7.91185L71.4356 11.3C71.0372 11.1554 70.555 11.0425 69.9889 10.9612C69.4228 10.8799 68.8148 10.8392 68.1648 10.8392C66.2988 10.8392 64.8887 11.3452 63.9348 12.3571C62.981 13.369 62.5039 14.905 62.5039 16.965C62.5039 19.0249 62.9756 20.5339 63.9191 21.4915C64.8626 22.4491 66.2884 22.9281 68.1963 22.9281C68.6995 22.9281 69.1503 22.892 69.5486 22.8197V19.5942ZM77.9143 7.15293H83.0406V26.5331H77.9143V7.15293ZM90.9975 11.0019H85.6195V7.15293H101.816L101.093 9.05029L100.37 11.0019H96.1552L96.2496 11.7608V26.5331H90.9975V11.0019ZM113.421 7.18003H118.799L123.58 17.2631L123.941 16.5178L124.838 14.661L125.985 12.2351L127.133 9.79568L128.014 7.92543L128.36 7.18003H133.392L134.493 26.5331H129.303L129.083 15.2303L125.404 22.6029H121.598L117.793 15.2303L117.447 26.5331H112.572L113.421 7.18003ZM153.74 26.0723C152.859 26.3795 152.016 26.5828 151.208 26.6821C150.401 26.7815 149.505 26.8312 148.519 26.8312C146.737 26.8312 145.175 26.5873 143.833 26.0994C142.491 25.6115 141.375 24.9293 140.484 24.0529C139.593 23.1766 138.922 22.133 138.471 20.9223C138.02 19.7117 137.795 18.3835 137.795 16.9379C137.795 15.4922 138.026 14.155 138.487 12.9263C138.948 11.6976 139.624 10.6404 140.515 9.75499C141.406 8.86961 142.512 8.17843 143.833 7.68145C145.154 7.18448 146.664 6.93606 148.362 6.93606C149.347 6.93606 150.239 7.01738 151.035 7.18001C151.832 7.34264 152.608 7.56851 153.363 7.85764L152.073 11.4626C151.654 11.3 151.187 11.1554 150.674 11.0289C150.16 10.9024 149.547 10.8392 148.834 10.8392C145.102 10.8392 143.236 12.8721 143.236 16.9379C143.236 18.9798 143.718 20.4886 144.682 21.4644C145.647 22.4402 147.136 22.9281 149.148 22.9281C149.819 22.9281 150.412 22.8874 150.925 22.8061C151.439 22.7248 151.947 22.6028 152.451 22.4402L153.74 26.0723ZM161.225 10.5411H158.992L161.036 7.18003H167.955L175 26.5331H169.591L168.333 22.6571L167.106 22.7384H162.735L161.665 22.6571L160.376 26.5331H155.312L161.225 10.5411ZM167.106 18.9708L165.03 12.5197L162.829 18.9708H167.106Z" fill="white"/>
</g>
</g>
<defs>
<clipPath id="clip0_31_355">
<rect width="175" height="34" fill="white"/>
</clipPath>
</defs>
</svg>
