<svg width="51" height="30" viewBox="0 0 51 30" fill="none" xmlns="http://www.w3.org/2000/svg">
<path fill-rule="evenodd" clip-rule="evenodd" d="M8.5 6.25C7.3264 6.25 6.375 6.80965 6.375 7.5C6.375 8.19035 7.3264 8.75 8.5 8.75H42.5C43.6736 8.75 44.625 8.19035 44.625 7.5C44.625 6.80965 43.6736 6.25 42.5 6.25H8.5ZM14.875 15C14.875 14.3096 15.8264 13.75 17 13.75H42.5C43.6736 13.75 44.625 14.3096 44.625 15C44.625 15.6904 43.6736 16.25 42.5 16.25H17C15.8264 16.25 14.875 15.6904 14.875 15ZM27.625 22.5C27.625 21.8096 28.5764 21.25 29.75 21.25H42.5C43.6736 21.25 44.625 21.8096 44.625 22.5C44.625 23.1904 43.6736 23.75 42.5 23.75H29.75C28.5764 23.75 27.625 23.1904 27.625 22.5Z" fill="white"/>
</svg>
