<svg width="52" height="52" viewBox="0 0 52 52" fill="none" xmlns="http://www.w3.org/2000/svg">
<path d="M48.4401 26C48.4583 25.9818 31.8737 9.30629 31.8737 9.30629C31.4736 8.90622 31.6009 8.25157 32.0919 8.01517C35.3834 6.39671 39.4386 6.86952 42.2209 9.52451C44.0576 11.2884 44.985 13.6707 44.9668 16.0165C44.9668 16.4529 45.1487 16.8712 45.4578 17.1803L49.7858 21.5083C50.2041 21.9266 50.9315 21.7629 51.1133 21.2174C53.0591 15.6164 51.8043 9.14263 47.3308 4.66915C41.5117 -1.15001 32.2556 -1.5137 26 3.55987C25.9818 3.54169 9.30629 20.1263 9.30629 20.1263C8.90623 20.5264 8.25157 20.3991 8.01517 19.9081C6.39671 16.6166 6.86952 12.5614 9.52451 9.7791C11.2884 7.94243 13.6707 7.015 16.0165 7.03318C16.4529 7.03318 16.8712 6.85133 17.1803 6.54219L21.5083 2.21419C21.9266 1.79594 21.7629 1.06855 21.2174 0.886699C15.6164 -1.05908 9.14263 0.195675 4.66915 4.66915C-1.15001 10.4883 -1.5137 19.7444 3.55988 26C3.54169 26.0182 20.1263 42.6937 20.1263 42.6937C20.5264 43.0938 20.3991 43.7484 19.9081 43.9848C16.6166 45.6033 12.5614 45.1305 9.7791 42.4755C7.94243 40.7116 7.015 38.3293 7.03318 35.9835C7.03318 35.5471 6.85134 35.1288 6.54219 34.8197L2.21419 30.4917C1.79594 30.0734 1.06855 30.2371 0.886699 30.7826C-1.05908 36.3836 0.195674 42.8574 4.66915 47.3308C10.4883 53.15 19.7444 53.5137 26 48.4401C26.0182 48.4583 42.6937 31.8737 42.6937 31.8737C43.0938 31.4736 43.7484 31.6009 43.9848 32.0919C45.6033 35.3834 45.1305 39.4386 42.4755 42.2209C40.7116 44.0576 38.3293 44.985 35.9835 44.9668C35.5471 44.9668 35.1288 45.1487 34.8197 45.4578L30.4917 49.7858C30.0734 50.2041 30.2371 50.9314 30.7826 51.1133C36.3836 53.0591 42.8574 51.8043 47.3308 47.3308C53.15 41.5117 53.5137 32.2556 48.4401 26ZM40.9298 29.1642C38.493 28.3458 35.6562 28.9096 33.7104 30.8554C33.7104 30.8554 26.3273 38.2384 23.4541 41.1116C23.2359 41.3298 22.854 41.1116 22.9449 40.8025C23.6723 38.3839 23.0904 35.6743 21.1992 33.7649C21.1992 33.7649 13.7616 26.3273 10.7429 23.2905C10.5247 23.0722 10.7611 22.6904 11.052 22.7813C13.4888 23.5996 16.3257 23.0359 18.2714 21.0901C18.2714 21.0901 25.6181 13.7434 28.8005 10.5792C29.0187 10.361 29.4188 10.5974 29.3096 10.8884C28.4004 13.3797 28.9459 16.2711 30.9645 18.2896C30.9645 18.2896 38.2748 25.5999 41.2753 28.6186C41.4753 28.8914 41.2389 29.2733 40.9298 29.1642Z" fill="#149ECA"/>
</svg>
