<svg width="44" height="45" viewBox="0 0 44 45" fill="none" xmlns="http://www.w3.org/2000/svg">
<path d="M40.0839 22.5C40.0989 22.4843 26.3753 8.05352 26.3753 8.05352C26.0442 7.70731 26.1496 7.14078 26.5559 6.9362C29.2795 5.53562 32.6352 5.94478 34.9375 8.24236C36.4574 9.76884 37.2248 11.8304 37.2097 13.8604C37.2097 14.2381 37.3602 14.6001 37.616 14.8676L41.1974 18.613C41.5435 18.9749 42.1454 18.8333 42.2959 18.3612C43.906 13.5142 42.8677 7.91189 39.166 4.04061C34.3507 -0.995197 26.6913 -1.30993 21.5148 3.08066C21.4998 3.06492 7.7009 17.417 7.7009 17.417C7.36984 17.7632 6.82812 17.653 6.6325 17.2281C5.29324 14.3798 5.68448 10.8704 7.88147 8.46268C9.34111 6.87325 11.3124 6.07067 13.2536 6.08641C13.6147 6.08641 13.9608 5.92904 14.2166 5.66151L17.798 1.91613C18.1441 1.55418 18.0087 0.924705 17.5572 0.767336C12.9225 -0.916512 7.56546 0.169334 3.86369 4.04061C-0.951622 9.07642 -1.25258 17.0865 2.94577 22.5C2.93073 22.5157 16.6544 36.9465 16.6544 36.9465C16.9854 37.2927 16.8801 37.8592 16.4738 38.0638C13.7501 39.4644 10.3945 39.0552 8.09214 36.7576C6.57231 35.2312 5.80487 33.1696 5.81991 31.1396C5.81991 30.7619 5.66944 30.3999 5.41362 30.1324L1.83223 26.387C1.48613 26.0251 0.884217 26.1667 0.733738 26.6388C-0.876383 31.4858 0.161919 37.0881 3.86369 40.9594C8.67901 45.9952 16.3384 46.3099 21.5148 41.9193C21.5299 41.9351 35.3288 27.583 35.3288 27.583C35.6598 27.2368 36.2015 27.347 36.3972 27.7719C37.7364 30.6202 37.3452 34.1296 35.1482 36.5373C33.6885 38.1267 31.7173 38.9293 29.7761 38.9136C29.415 38.9136 29.0689 39.071 28.813 39.3385L25.2317 43.0839C24.8855 43.4458 25.021 44.0753 25.4724 44.2327C30.1072 45.9165 35.4642 44.8307 39.166 40.9594C43.9813 35.9236 44.2822 27.9135 40.0839 22.5ZM33.8691 25.2382C31.8527 24.5301 29.5052 25.0179 27.8951 26.7018C27.8951 26.7018 21.7857 33.0909 19.4081 35.5774C19.2276 35.7662 18.9116 35.5774 18.9868 35.3098C19.5887 33.2168 19.1072 30.872 17.5422 29.2197C17.5422 29.2197 11.3876 22.7833 8.88968 20.1552C8.7091 19.9664 8.90473 19.6359 9.14549 19.7146C11.1619 20.4227 13.5094 19.9349 15.1195 18.251C15.1195 18.251 21.1988 11.8933 23.8322 9.1551C24.0128 8.96626 24.3438 9.17084 24.2535 9.42263C23.5011 11.5786 23.9526 14.0808 25.6229 15.8276C25.6229 15.8276 31.6721 22.1538 34.155 24.7661C34.3206 25.0022 34.1249 25.3326 33.8691 25.2382Z" fill="#149ECA"/>
</svg>
